<svg width="726" height="103" viewBox="0 0 726 103" fill="none" xmlns="http://www.w3.org/2000/svg">
<path d="M238.022 33.7773C237.221 35.7688 236.814 41.4591 236.776 59.5395C237.291 64.7563 237.646 72.8306 238.012 83.1413C238.379 86.7469 239.113 87.0495 239.869 87.3613" stroke="black" stroke-width="4" stroke-linecap="round" stroke-linejoin="round"/>
<path d="M213.493 34.3516C214.482 34.3516 215.47 34.3516 223.861 34.6148C232.251 34.8781 248.014 35.4045 264.255 35.947" stroke="black" stroke-width="4" stroke-linecap="round" stroke-linejoin="round"/>
<path d="M292.106 34.5312C292.106 35.6496 291.902 37.0398 291.695 42.1745C290.789 64.6202 294.486 70.6192 294.727 74.0271C294.806 75.1542 295.181 76.5779 296.027 77.7255C296.872 78.8731 298.252 79.6939 301.99 81.1273C305.727 82.5608 311.78 84.5821 318.545 86.9288" stroke="black" stroke-width="4" stroke-linecap="round" stroke-linejoin="round"/>
<path d="M291.222 35.5739C291.222 35.4859 291.222 35.3978 295.851 35.4166C300.479 35.4354 309.736 35.5637 314.854 35.6733C319.972 35.783 320.669 35.8702 321.388 35.96" stroke="black" stroke-width="4" stroke-linecap="round" stroke-linejoin="round"/>
<path d="M169.776 36.3125C169.688 36.3125 169.6 36.3125 169.555 44.0342C169.51 51.756 169.51 67.1994 169.574 75.6963C169.638 84.1932 169.766 85.2755 170.327 86.2543C176.151 90.6314 184.303 94.5709 188.649 95.4207C189.688 95.5753 190.473 95.6625 191.282 95.7523" stroke="black" stroke-width="4" stroke-linecap="round" stroke-linejoin="round"/>
<path d="M170.434 36.6843C173.005 36.6843 179.563 36.6843 187.842 36.6403C190.887 36.5962 191.584 36.5082 192.423 36.5501C193.262 36.5919 194.221 36.7663 195.209 36.9459" stroke="black" stroke-width="4" stroke-linecap="round" stroke-linejoin="round"/>
<path d="M80.2471 41.2664C78.9846 45.2243 77.1471 52.1721 76.5094 58.1287C76.2192 60.8399 75.7449 70.4255 75.5439 83.5425C75.457 89.2134 76.7177 91.2637 78.0907 93.2198C80.0853 96.0613 85.1045 97.7411 89.4958 98.5975C92.6652 99.2157 95.2798 98.3115 96.4866 97.1467C100.336 93.4319 100.055 86.9085 100.231 76.3186C100.301 72.0991 100.322 69.2027 98.9263 64.0571C93.6723 44.6928 90.5855 41.3522 89.1513 40.1741C87.7203 38.9985 85.0393 40.7334 82.9075 42.4392C82.0375 43.2781 81.5974 44.0628 81.3266 44.8338C81.0558 45.6049 80.9678 46.3384 80.8771 47.0942" stroke="black" stroke-width="4" stroke-linecap="round" stroke-linejoin="round"/>
<path d="M30.2807 40.0078C30.014 42.797 30.7131 54.5893 31.8161 67.2286C33.6487 88.2285 32.7856 93.1472 33.3012 97.7444C33.4953 99.4746 34.848 99.71 35.8152 99.9531C36.7823 100.196 37.6542 100.371 40.6642 100.46C43.6741 100.55 48.7956 100.55 54.0724 100.55" stroke="black" stroke-width="4" stroke-linecap="round" stroke-linejoin="round"/>
<path d="M119.147 98.402C119.147 91.8442 119.395 82.2932 119.707 71.4677C119.959 62.7054 119.641 47.293 119.442 38.9156C119.244 30.5383 118.98 29.6597 119.381 29.1631C123.492 24.0813 135.564 30.0661 138.837 31.4692C142.516 33.046 146.151 41.9668 148.616 50.6854C149.204 52.7669 148.508 54.2616 147.625 55.5787C144.892 59.6595 139.416 60.5155 133.071 60.7654C125.352 61.0694 120.317 57.9205 120.176 57.1612C119.691 54.5575 125.563 61.6505 128.503 66.4993C131.302 70.69 135.992 77.3748 140.903 83.335C142.947 85.7355 144.08 86.869 145.512 88.0368" stroke="black" stroke-width="4" stroke-linecap="round" stroke-linejoin="round"/>
<path d="M267.105 51.9492C267.105 56.8522 267.536 69.1611 268.503 73.6428C268.899 75.6613 269.643 78.8679 270.996 82.3316C271.784 83.6666 272.779 84.1437 274.069 84.6352" stroke="black" stroke-width="4" stroke-linecap="round" stroke-linejoin="round"/>
<path d="M248.791 52.125C248.878 52.125 248.965 52.125 253.279 52.125C257.594 52.125 266.132 52.125 271.447 52.1686C276.761 52.2122 278.592 52.2994 280.478 52.3892" stroke="black" stroke-width="4" stroke-linecap="round" stroke-linejoin="round"/>
<path d="M292.058 56.2773C293.903 56.4802 295.748 56.6831 298.112 56.9905C300.476 57.2979 303.303 57.7037 305.344 57.9127C307.386 58.1217 308.555 58.1217 309.76 58.1217" stroke="black" stroke-width="4" stroke-linecap="round" stroke-linejoin="round"/>
<path d="M170.079 64.2852C171.707 64.488 173.335 64.6909 178.462 65.0855C183.59 65.4801 192.167 66.0602 201.004 66.658" stroke="black" stroke-width="4" stroke-linecap="round" stroke-linejoin="round"/>
<path d="M620.144 65.87C619.895 63.4564 619.537 55.2681 622.176 42.7326C623.493 36.4738 623.71 30.5922 625.151 24.1711C626.114 19.8854 627.61 17.1818 628.548 16.3584C629.869 15.1982 632.38 17.1102 634.157 18.462C636.095 19.9371 637.639 30.9929 640.236 47.0232C643.874 61.7697 644.228 65.5064 644.55 69.461C644.616 70.3859 644.616 71.0834 644.881 72.5947" stroke="black" stroke-width="4" stroke-linecap="round" stroke-linejoin="round"/>
<path d="M514.856 24.7107C519.097 20.9012 526.025 16.3832 544.342 16.0205C548.831 15.9316 550.145 17.073 551.594 18.1258C553.276 19.3482 554.544 21.3671 555.633 23.6811C558.349 29.4526 555.532 36.3786 553.111 42.1383C551.523 45.9177 546.936 48.2352 543.744 49.6065C539.589 51.3914 533.511 50.1072 528.938 48.0921C527.846 47.0472 526.654 45.3201 525.587 43.5888C524.519 41.8574 523.611 40.1739 522.675 38.4395" stroke="black" stroke-width="4" stroke-linecap="round" stroke-linejoin="round"/>
<path d="M656.902 20.5397C657.89 22.5166 659.533 27.6463 661.525 36.215C665.108 51.6302 665.109 56.086 666.311 57.5134C670.59 62.5959 680.746 61.683 684.756 60.3127C686.92 51.9538 686.831 34.8003 685.906 28.124C685.592 24.7953 685.592 21.5869 685.592 18.2812" stroke="black" stroke-width="4" stroke-linecap="round" stroke-linejoin="round"/>
<path d="M520.379 76.4317C520.203 75.87 520.027 75.3083 519.376 66.1071C518.726 56.906 517.607 39.0824 516.454 20.7188" stroke="black" stroke-width="4" stroke-linecap="round" stroke-linejoin="round"/>
<path d="M575.469 24.1946C575.469 24.0185 578.471 23.9278 584.865 23.6155C588.257 23.3032 591.95 22.6787 595.215 22.3569C598.479 22.0352 601.203 22.0352 604.009 22.0352" stroke="black" stroke-width="4" stroke-linecap="round" stroke-linejoin="round"/>
<path d="M572.858 22.7578C572.192 28.4972 572.097 38.8726 572.726 51.207C573.09 58.3566 574.131 62.5556 576.812 66.8673C579.494 69.1887 584.857 71.7809 589.382 73.4064C593.907 75.0318 597.431 75.612 601.062 76.2097" stroke="black" stroke-width="4" stroke-linecap="round" stroke-linejoin="round"/>
<path d="M398.344 91.0421C398.75 79.8718 398.357 69.9088 397.445 60.1825C396.304 48.0149 397.631 36.7673 398.383 29.5833C398.685 26.6995 398.639 25.3444 401.424 29.2886C410.446 42.0664 415.866 52.6839 416.526 53.0247C421.091 55.3852 425.617 35.2164 430.742 26.9591C431.187 26.242 432.479 28.4304 434.91 39.523C437.341 50.6156 441.268 71.1328 443.335 82.2614C445.402 93.3901 445.489 94.5085 445.621 95.4334C445.754 96.3583 445.928 97.0558 446.108 98.0386" stroke="black" stroke-width="4" stroke-linecap="round" stroke-linejoin="round"/>
<path d="M685.325 27.2891C686.444 31.3162 688.889 39.6138 692.035 48.2829C694.493 55.0574 697.323 59.3944 699.303 63.3536C699.878 64.4171 700.488 65.3762 701.064 66.1754C701.64 66.9747 702.163 67.585 703.759 68.7422" stroke="black" stroke-width="4" stroke-linecap="round" stroke-linejoin="round"/>
<path d="M463.022 35.4548C462.615 44.4571 462.405 58.1892 462.661 72.7385C462.785 79.7735 464.57 81.9286 465.8 83.0277C468.139 85.1185 472.814 85.7123 484.251 85.9447C487.207 86.0047 489.385 85.0739 491.222 83.5017C495.185 80.1105 496.147 75.2223 496.455 69.493C497.024 58.8882 495.868 50.263 494.094 46.4013C489.284 35.9284 478.877 31.0753 474.19 29.2973C472.974 28.8359 471.764 29.3532 470.797 30.476C469.072 33.5756 468.087 42.2169 467.822 52.6343C467.761 56.4471 467.848 57.2678 467.938 58.1134" stroke="black" stroke-width="4" stroke-linecap="round" stroke-linejoin="round"/>
<path d="M575.274 45.0737C575.186 44.9857 575.098 44.8977 576.916 45.0242C578.733 45.1507 582.46 45.4944 584.772 45.7587C587.084 46.0229 587.869 46.1973 588.677 46.377" stroke="black" stroke-width="4" stroke-linecap="round" stroke-linejoin="round"/>
<path d="M623.017 47.2852C624.216 47.2852 625.415 47.2852 628.608 47.4507C631.801 47.6163 636.952 47.9475 642.259 48.2886" stroke="black" stroke-width="4" stroke-linecap="round" stroke-linejoin="round"/>
<path d="M532.858 48.8672C532.682 48.8672 533.201 49.3031 536.382 52.1551C538.952 54.5712 543.463 58.9541 546.089 61.6224C548.716 64.2907 549.321 65.1114 550.209 65.9571" stroke="black" stroke-width="4" stroke-linecap="round" stroke-linejoin="round"/>
</svg>
