<svg width="800" height="110" viewBox="0 0 800 110" fill="none" xmlns="http://www.w3.org/2000/svg">
<path d="M243.232 6.30273C245.736 6.43798 251.738 6.71257 257.481 7.16632C267.214 7.93525 270.995 8.58838 274.551 9.10097C275.43 9.24026 276.295 9.42412 277.744 9.77033C279.194 10.1165 281.2 10.6195 285.218 11.6949" stroke="black" stroke-width="4" stroke-linecap="round" stroke-linejoin="round"/>
<path d="M244.186 7.10352C244.4 8.33235 245.018 12.346 246.301 18.6746C248.792 30.9658 248.476 37.9045 248.939 44.2077C249.428 50.8741 250.165 55.9407 250.232 57.5759C250.3 59.2223 250.575 71.0605 252.129 87.7472C252.675 93.6045 256.794 93.4207 259.315 93.4667C266.349 93.5949 269.384 94.3456 273.526 94.6269C280.521 95.1021 285.379 96.0171 288.765 96.4837C289.605 96.577 290.432 96.6689 291.226 96.7623C292.02 96.8556 292.756 96.9475 293.513 97.0422" stroke="black" stroke-width="4" stroke-linecap="round" stroke-linejoin="round"/>
<path d="M770.48 13.5156C767.121 19.3341 759.501 32.3746 756.223 38.8413C753.696 43.8268 745.844 57.1813 740.19 69.0265C737.639 74.371 734.514 81.8807 732.265 87.8198C731.665 90.0622 730.878 92.7861 729.83 95.7158C729.29 97.1367 728.734 98.4237 728.16 100.028" stroke="black" stroke-width="4" stroke-linecap="round" stroke-linejoin="round"/>
<path d="M726.279 15.4922C727.107 15.8544 730.257 18.9996 734.482 23.9681C737.584 27.6159 740.843 32.6501 743.679 36.599C745.467 39.0876 751.78 49.9918 760.161 64.6856C764.533 72.3493 765.725 75.7848 767.484 81.3833C769.442 87.6138 771.596 91.82 772.806 95.0752C774.014 97.7733 775.128 99.7233 775.915 101.02C776.334 101.673 776.794 102.317 777.268 102.98" stroke="black" stroke-width="4" stroke-linecap="round" stroke-linejoin="round"/>
<path d="M171.549 12.5754C171.733 10.5422 171.919 7.82775 172.059 5.71546C172.184 3.81377 173.493 10.3711 176.179 15.2393C178.044 18.6208 179.625 20.9656 180.272 22.3543C181.024 23.9665 186.035 33.3635 193.883 47.7597C201.357 61.4695 205.329 65.4043 209.008 71.351C215.085 81.1749 219.706 88.2222 220.585 89.7962C221.064 90.6537 221.74 91.5541 222.025 89.2626C222.026 75.0045 221.838 70.1036 221.412 54.9925C220.986 43.282 220.134 23.3647 219.534 2" stroke="black" stroke-width="4" stroke-linecap="round" stroke-linejoin="round"/>
<path d="M98.44 89.6447C97.3454 87.318 96.5778 84.4011 96.145 70.757C95.7524 58.3831 95.7121 34.9265 95.555 22.4278C95.398 9.92906 95.3052 9.0946 95.717 9.17036C96.1288 9.24611 97.0482 10.2574 101.563 16.7826C106.077 23.3078 114.159 35.3164 118.639 42.2032C123.949 50.3661 124.753 53.1986 126.41 57.8683C129.619 66.9157 132.837 73.2699 134.917 77.4518C136.568 80.7694 138.979 86.7271 140.391 75.2575C141.803 63.7879 142.03 34.7649 142.192 19.4442C142.355 4.12344 142.447 3.38445 142.541 2.06055" stroke="black" stroke-width="4" stroke-linecap="round" stroke-linejoin="round"/>
<path d="M35.4915 89.4897C35.8892 86.7627 36.287 84.0357 37.7449 72.9042C39.2029 61.7728 41.7089 42.3195 43.6354 30.5426C46.157 15.1286 48.5105 10.8981 49.2975 9.1769C49.7416 8.20565 50.1764 6.99161 53.3179 13.444C56.4594 19.8963 62.2687 34.0405 65.6782 42.7939C70.191 54.3796 70.7801 58.3153 71.8307 64.1339C74.9825 78.3191 77.4231 88.8785 77.841 90.9637C77.9831 91.9457 77.9831 92.7731 77.9831 93.6256" stroke="black" stroke-width="4" stroke-linecap="round" stroke-linejoin="round"/>
<path d="M173.555 86.1626C173.369 85.7931 172.43 80.8436 171.082 67.2292C170.209 58.4029 170.443 45.5673 170.441 38.3971C170.805 26.7573 171.175 21.5725 171.454 19.3084C171.549 17.877 171.549 15.8722 171.549 13.8066" stroke="black" stroke-width="4" stroke-linecap="round" stroke-linejoin="round"/>
<path d="M252.466 50.2578C254.409 50.2578 272.258 53.9439 282.953 56.12C283.839 56.2133 284.758 56.3053 285.691 56.4446C286.625 56.5838 287.544 56.7677 289.884 57.2357" stroke="black" stroke-width="4" stroke-linecap="round" stroke-linejoin="round"/>
<path d="M42.1479 61.7793C45.2826 62.0984 57.2248 62.7463 63.0696 63.2547C63.9109 63.3954 64.6463 63.4873 65.4389 63.5347C66.2315 63.582 67.0589 63.582 67.9113 63.582" stroke="black" stroke-width="4" stroke-linecap="round" stroke-linejoin="round"/>
<path d="M364.636 22.2262C365.09 20.4884 366.601 17.4495 368.903 13.9696C371.503 10.0388 377.958 10.566 382.958 10.2236C389.029 9.808 396.369 12.8513 402.548 16.5134C405.478 18.2495 407.963 26.7492 410.934 37.3287C413.515 46.5212 410.738 51.5936 408.387 55.9086C406.756 58.903 399.147 59.8746 390.765 60.7601C381.127 61.7782 374.069 60.5741 372.576 59.9202C371.083 59.0806 369.856 58.0465 368.621 56.0761C367.85 54.6617 366.787 52.4059 364.848 49.2379" stroke="black" stroke-width="4" stroke-linecap="round" stroke-linejoin="round"/>
<path d="M665.999 24.553C665.906 24.553 665.813 24.553 666.381 32.6514C666.949 40.7498 668.18 56.9466 669.088 66.4775C670.571 82.0589 674.52 87.2977 679.688 92.533C683.373 96.2649 689.159 96.7852 692.787 97.0386C699.058 97.4765 700.848 86.7095 703.986 80.2389C705.497 77.1258 705.907 73.7882 706.573 66.7748C707.972 52.0558 706.56 41.2021 706.353 35.5623C706.283 23.4094 706.375 14.7388 706.514 13.1519C706.562 12.3066 706.562 11.3802 706.562 10.4258" stroke="black" stroke-width="4" stroke-linecap="round" stroke-linejoin="round"/>
<path d="M450.182 14.9883C448.603 15.5399 443.323 19.591 438.561 27.2321C436.799 30.0579 435.365 34.7502 434.199 44.0396C433.034 53.3289 432.59 67.291 432.582 75.7052C432.572 86.5714 433.929 90.0913 436.077 92.5499C442.89 100.348 448.609 99.6873 456.022 99.5538C460.376 99.4754 462.828 96.977 464.031 95.7209C469.084 90.4467 471.41 81.0072 473.533 77.2377C475.917 73.0059 475.142 64.1781 473.933 53.4482C473.036 45.4827 469.984 38.7276 467.817 33.6476C465.452 28.1019 458.996 22.9548 452.346 19.9406C448.158 18.0419 444.467 20.9482 443.157 21.9177C442.498 22.6113 441.848 23.7145 440.382 27.2012C438.917 30.6879 436.655 36.5247 434.324 42.5383" stroke="black" stroke-width="4" stroke-linecap="round" stroke-linejoin="round"/>
<path d="M524.568 25.7475C522.999 23.3934 518.518 17.8889 511.932 16.521C505.378 15.1597 500.181 16.8372 498.111 18.2612C495.467 20.0793 493.921 25.9479 492.278 37.8982C491.16 46.0293 491.357 58.5617 491.103 66.0978C490.611 80.6398 490.935 88.7325 492.836 92.9671C494.365 96.372 499.459 97.8924 505.723 98.7821C511.714 99.6328 516.707 98.4563 518.943 97.9894C522.352 97.2777 524.117 92.8809 527.482 84.299C529.149 80.0467 529.824 69.718 529.409 57.1796C529.265 52.8584 527.791 52.7932 525.149 53.4782C518.368 55.6287 512.157 57.7823 508.7 59.0331C507.188 59.6404 506.168 60.192 505.118 60.7603" stroke="black" stroke-width="4" stroke-linecap="round" stroke-linejoin="round"/>
<path d="M610.99 97.0647C611.996 95.3268 612.776 87.4624 613.477 75.1843C613.98 66.389 615.777 60.8166 617.478 53.8456C620.511 41.4089 622.24 31.6644 623.886 27.6548C627.527 18.7801 629.846 16.8775 630.989 16.6409C633.412 16.1391 635.857 25.2415 639.684 34.5008C642.463 41.2235 642.162 48.1779 642.408 54.3561C642.922 67.2454 644.932 84.7325 645.815 88.2553C646.185 90.9785 647.202 95.2547 648.502 99.7078C648.974 101.495 649.066 102.322 649.161 104.568" stroke="black" stroke-width="4" stroke-linecap="round" stroke-linejoin="round"/>
<path d="M551.714 17.3633C551.714 17.5471 553.22 27.8145 555.502 46.1379C557.232 60.0239 555.956 68.2434 555.376 74.376C554.453 84.1293 555.66 92.1516 557.715 95.5594C560.551 100.261 566.161 99.9104 573.691 100.97C581.715 101.109 588.003 100.923 590.379 100.642C591.429 100.546 592.164 100.546 592.922 100.546" stroke="black" stroke-width="4" stroke-linecap="round" stroke-linejoin="round"/>
<path d="M552.346 18.2148C556.262 19.0854 567.696 22.246 571.921 23.4091C572.808 23.5971 573.635 23.6891 576.306 23.7824C578.976 23.8757 583.465 23.9676 588.368 23.7811" stroke="black" stroke-width="4" stroke-linecap="round" stroke-linejoin="round"/>
<path d="M366.897 89.4259C365.767 86.1833 364.87 74.5524 364.189 60.5171C363.828 53.0522 364.079 39.174 364.171 31.3636C364.263 23.5532 364.447 22.2228 364.541 21.1207C364.636 20.0186 364.636 19.185 364.636 18.3262" stroke="black" stroke-width="4" stroke-linecap="round" stroke-linejoin="round"/>
<path d="M556.444 49.6973C559.762 52.2797 566.089 56.5615 569.711 57.5407C571.859 58.0491 575.386 58.3333 579.559 58.194C581.342 58.0548 582.445 57.7764 585.253 57.2082" stroke="black" stroke-width="4" stroke-linecap="round" stroke-linejoin="round"/>
<path d="M616.636 60.459C616.728 60.459 616.82 60.459 620.617 60.9151C624.414 61.3712 631.914 62.2835 636.67 62.7534C641.425 63.2234 643.21 63.2234 645.049 63.2234" stroke="black" stroke-width="4" stroke-linecap="round" stroke-linejoin="round"/>
<path d="M394.476 61.3555C395.953 62.3695 398.641 65.5935 401.259 71.2651C402.928 74.8797 404.058 78.2153 406.236 82.6238C407.395 84.5279 408.515 86.1158 409.581 87.5519C410.095 88.2525 410.554 88.8961 411.585 90.1163" stroke="black" stroke-width="4" stroke-linecap="round" stroke-linejoin="round"/>
</svg>
