<svg width="619" height="183" viewBox="0 0 619 183" fill="none" xmlns="http://www.w3.org/2000/svg">
<path d="M14.7952 83.6058C14.6242 82.4676 14.4532 81.3294 13.8359 71.043C13.2187 60.7565 12.1605 41.3562 11.4404 30.7803C10.7204 20.2044 10.3706 19.0406 10.9988 18.4411C14.6999 14.9091 25.3382 17.4883 32.0415 18.3579C34.3368 18.6557 36.0152 20.7464 37.7292 23.2077C42.4969 30.0541 41.1358 37.3331 39.3804 42.6646C38.2355 46.1418 35.2622 48.2166 33.1544 49.5552C28.0972 51.4886 22.2558 51.7231 16.3631 50.377C14.9462 49.7304 13.4316 48.7976 11.5177 47.8366" stroke="black" stroke-width="4" stroke-linecap="round" stroke-linejoin="round"/>
<path d="M49.8914 78.7261C52.7356 73.0216 57.4288 58.9769 61.7355 44.3803C63.8292 37.2843 64.9973 29.4463 67.2177 23.1484C67.6955 21.7934 68.0349 20.5117 68.6719 19.9316C69.309 19.3514 70.2262 19.5091 71.4394 20.9561C79.5834 30.6704 80.2531 43.2223 83.5912 54.5969C86.6321 66.7012 88.9127 75.4992 89.8682 78.0755C90.3075 79.2182 90.6539 80.0265 91.0109 81.9093" stroke="black" stroke-width="4" stroke-linecap="round" stroke-linejoin="round"/>
<path d="M61.1068 55.5547C61.5687 55.5547 64.0964 56.1321 68.374 57.2957C71.9787 58.4593 76.1851 59.8626 80.6698 61.2607C82.6138 61.8503 83.8841 62.1968 85.1929 62.5537" stroke="black" stroke-width="4" stroke-linecap="round" stroke-linejoin="round"/>
<path d="M101.95 22.8176C104.206 31.3027 109.124 49.1478 110.56 54.5251C112.632 62.2849 115.267 72.3666 117.6 75.2345C120.292 78.5446 128.22 76.4684 133.018 74.352C136.236 72.9324 138.393 70.1133 139.849 67.886C142.883 63.2447 141.716 49.3961 138.677 33.4307C136.982 24.5252 133.239 17.6198 132.724 14.9395C134.638 18.9483 136.473 22.9528 137.91 27.7472C138.437 30.0409 138.553 32.0519 138.672 34.1238" stroke="black" stroke-width="4" stroke-linecap="round" stroke-linejoin="round"/>
<path d="M158.437 18.7598C158.777 20.0101 162.786 34.509 168.824 56.9586C173.149 73.0439 171.718 78.2255 172.485 80.033C175.728 80.8011 181.877 80.8035 188.155 80.5686C190.594 80.4502 191.518 80.3336 193.17 79.8602" stroke="black" stroke-width="4" stroke-linecap="round" stroke-linejoin="round"/>
<path d="M193.473 37.6602C194.512 36.0277 198.932 30.6456 202.673 27.281C203.71 26.3484 205.455 25.5822 206.489 26.2659C209.271 28.107 208.774 42.8105 209.978 60.2947C211.819 67.8771 217.21 72.0707 224.1 76.6756C226.709 78.3556 227.518 78.702 228.35 79.059" stroke="black" stroke-width="4" stroke-linecap="round" stroke-linejoin="round"/>
<path d="M241.238 72.8882C240.159 68.554 237.086 52.974 235.87 32.7363C235.316 23.5028 234.627 16.3608 235.461 14.4011C236.327 12.3667 240.058 18.0417 244.694 25.7489C262.117 54.7192 262.78 61.2413 263.559 63.2909C263.98 64.3991 264.745 65.5237 265.186 62.7985C265.737 43.7131 265.495 34.1317 265.902 25.6119C266.079 20.8299 266.195 15.1167 266.314 9.23047" stroke="black" stroke-width="4" stroke-linecap="round" stroke-linejoin="round"/>
<path d="M278.707 11.4941C278.707 15.8093 279.633 22.4062 281.335 35.6899C284.164 57.7743 283.207 72.7836 284.382 74.7066C285.674 75.4748 288.378 75.8212 291.411 75.9997C294.445 76.1782 297.726 76.1782 301.107 76.1782" stroke="black" stroke-width="4" stroke-linecap="round" stroke-linejoin="round"/>
<path d="M279.807 40.248C281.057 40.5878 282.308 40.9276 284.202 41.3031C286.097 41.6786 288.597 42.0794 290.578 42.4592C292.56 42.8389 293.945 43.1854 296.423 43.5423" stroke="black" stroke-width="4" stroke-linecap="round" stroke-linejoin="round"/>
<path d="M280.561 11.5449C280.907 11.5449 281.254 11.5449 284.761 12.3894C288.268 13.2339 294.925 14.9228 298.874 16.0239C302.823 17.1249 303.862 17.5869 305.283 18.0628" stroke="black" stroke-width="4" stroke-linecap="round" stroke-linejoin="round"/>
<path d="M213.925 17.764C213.461 17.6474 212.997 17.5309 211.631 17.1793C210.264 16.8277 208.01 16.2448 204.274 14.9375" stroke="black" stroke-width="4" stroke-linecap="round" stroke-linejoin="round"/>
<path d="M366.888 70.837C367.951 63.5535 370.111 44.4684 369.499 37.0814C369.109 32.3656 367.189 28.1047 366.223 25.0451C365.795 23.6866 365.895 22.6107 367.314 21.8958C368.732 21.1809 371.569 20.8311 379.146 20.6509C386.723 20.4707 398.953 20.4707 411.554 20.4707" stroke="black" stroke-width="4" stroke-linecap="round" stroke-linejoin="round"/>
<path d="M371.137 50.157C371.253 50.157 371.368 50.157 375.223 49.3525C379.077 48.548 386.667 46.939 391.789 46.1101C396.912 45.2812 399.337 45.2812 401.836 45.2812" stroke="black" stroke-width="4" stroke-linecap="round" stroke-linejoin="round"/>
<path d="M432.157 29.9171C429.929 31.3065 425.485 43.8458 423.618 53.929C422.598 59.4374 425.153 64.4145 427.89 68.2185C431.507 73.2469 438.757 71.6726 443.894 70.9129C447.16 70.4301 449.329 67.6776 451.189 64.9331C458.494 54.1536 454.937 41.3216 452.769 35.6368C446.509 30.9251 437.818 27.1481 433.921 27.7729C433.208 28.2961 432.742 29.1044 432.261 29.9373" stroke="black" stroke-width="4" stroke-linecap="round" stroke-linejoin="round"/>
<path d="M472.169 25.8581C472.169 26.32 475.094 39.6344 479.93 60.0245C481.675 67.3798 482.649 68.4931 484.326 69.832C491.948 75.9179 496.944 76.0572 498.921 75.8824C506.455 75.2163 506.544 50.6677 505.304 39.3041C502.43 31.9768 500.516 26.2905 500.457 24.0625C500.399 22.9972 500.282 22.0645 500.162 20.0469" stroke="black" stroke-width="4" stroke-linecap="round" stroke-linejoin="round"/>
<path d="M536.271 71.969C534.873 70.9241 531.477 65.6912 525.445 33.8974C524.21 27.3887 523.855 26.5747 524.195 25.8633C526.272 21.5106 537.903 19.938 543.799 18.1644C548.72 16.684 554.114 25.542 557.71 31.0549C559.712 34.1225 558.575 39.5424 556.041 44.8751C553.893 49.3961 544.902 51.5296 536.885 52.1324C535.441 51.8974 534.395 51.5476 533.275 51.0759C532.154 50.6043 530.992 50.0213 528.734 48.3607" stroke="black" stroke-width="4" stroke-linecap="round" stroke-linejoin="round"/>
<path d="M545.525 55.1934C545.756 55.1934 547.376 55.5398 552.33 57.676C555.783 59.4657 561.142 62.6881 565.173 65.0988C569.204 67.5095 571.745 69.0108 575.062 70.9076" stroke="black" stroke-width="4" stroke-linecap="round" stroke-linejoin="round"/>
<path d="M572.525 27.4328C580.377 31.4371 596.288 40.6167 599.816 43.5721C601.244 44.7681 601.937 45.345 603.322 43.4143C604.707 41.4837 606.762 37.0276 608.993 33.0125C611.224 28.9974 613.568 25.5584 616.333 21.3086" stroke="black" stroke-width="4" stroke-linecap="round" stroke-linejoin="round"/>
<path d="M600.942 42.8242C601.988 45.4944 602.69 58.3694 600.708 68.8892C600.003 70.7761 599.249 72.8348 598.511 74.3573C597.773 75.8798 597.073 76.8037 594.586 79.1554" stroke="black" stroke-width="4" stroke-linecap="round" stroke-linejoin="round"/>
</svg>
